<?xml version="1.0" encoding="UTF-8" standalone="no"?>
<!-- Created with Inkscape (http://www.inkscape.org/) -->

<svg
   width="210mm"
   height="297mm"
   viewBox="0 0 210 297"
   version="1.1"
   id="svg1158"
   inkscape:version="1.2.1 (9c6d41e410, 2022-07-14)"
   sodipodi:docname="drawing-2.svg"
   xmlns:inkscape="http://www.inkscape.org/namespaces/inkscape"
   xmlns:sodipodi="http://sodipodi.sourceforge.net/DTD/sodipodi-0.dtd"
   xmlns="http://www.w3.org/2000/svg"
   xmlns:svg="http://www.w3.org/2000/svg">
  <sodipodi:namedview
     id="namedview1160"
     pagecolor="#ffffff"
     bordercolor="#000000"
     borderopacity="0.25"
     inkscape:showpageshadow="2"
     inkscape:pageopacity="0.0"
     inkscape:pagecheckerboard="0"
     inkscape:deskcolor="#d1d1d1"
     inkscape:document-units="mm"
     showgrid="false"
     inkscape:zoom="0.684102"
     inkscape:cx="548.89475"
     inkscape:cy="599.32583"
     inkscape:window-width="1366"
     inkscape:window-height="697"
     inkscape:window-x="-8"
     inkscape:window-y="-8"
     inkscape:window-maximized="1"
     inkscape:current-layer="layer1" />
  <defs
     id="defs1155" />
  <g
     inkscape:label="Layer 1"
     inkscape:groupmode="layer"
     id="layer1">
    <path
       style="opacity:0.99;fill:none;stroke:#000000;stroke-width:0.499999;stroke-linecap:round;stroke-linejoin:round;stroke-dasharray:none;stroke-opacity:1"
       id="path9783"
       sodipodi:type="arc"
       sodipodi:cx="103.96007"
       sodipodi:cy="170.54349"
       sodipodi:rx="36.596451"
       sodipodi:ry="21.548491"
       sodipodi:start="4.4841892"
       sodipodi:end="4.4835931"
       sodipodi:open="true"
       sodipodi:arc-type="arc"
       d="m 95.68106,149.55364 a 36.596451,21.548491 0 0 1 43.92547,16.11193 36.596451,21.548491 0 0 1 -27.35683,25.86631 36.596451,21.548491 0 0 1 -43.933623,-16.10422 36.596451,21.548491 0 0 1 27.343735,-25.87111"
       transform="rotate(-0.5394018)" />
    <path
       style="opacity:0.99;fill:none;stroke:#000000;stroke-width:0.499999;stroke-linecap:round;stroke-linejoin:round;stroke-dasharray:none;stroke-opacity:1"
       d="m 69.288824,172.83069 1.209291,23.90633 c 5.099453,24.49544 66.159585,25.34847 70.805425,-2.00062 l 0.86246,-24.67168"
       id="path10519"
       sodipodi:nodetypes="cccc" />
    <path
       style="opacity:0.99;fill:none;stroke:#000000;stroke-width:0.499999;stroke-linecap:round;stroke-linejoin:round;stroke-dasharray:none;stroke-opacity:1"
       d="m 88.016334,169.37873 0.03945,19.10706"
       id="path11992"
       sodipodi:nodetypes="cc" />
    <path
       style="opacity:0.99;fill:none;stroke:#000000;stroke-width:0.499999;stroke-linecap:round;stroke-linejoin:round;stroke-dasharray:none;stroke-opacity:1"
       d="m 76.131621,182.44537 c 3.421097,-4.09557 8.181401,-6.28702 11.816249,-7.29147"
       id="path12015"
       sodipodi:nodetypes="cc" />
    <path
       style="opacity:0.99;fill:none;stroke:#000000;stroke-width:0.499999;stroke-linecap:round;stroke-linejoin:round;stroke-dasharray:none;stroke-opacity:1"
       d="m 135.99139,181.30492 c -2.78758,-2.99746 -6.80114,-5.74564 -10.28747,-6.81663"
       id="path12017"
       sodipodi:nodetypes="cc" />
    <path
       style="opacity:0.99;fill:none;stroke:#000000;stroke-width:0.499999;stroke-linecap:round;stroke-linejoin:round;stroke-dasharray:none;stroke-opacity:1"
       d="m 125.58575,169.29537 0.0365,18.09591"
       id="path12019"
       sodipodi:nodetypes="cc" />
    <path
       style="opacity:0.99;fill:none;stroke:#000000;stroke-width:0.500002;stroke-linecap:round;stroke-linejoin:round;stroke-dasharray:none;paint-order:stroke fill markers"
       id="path10985"
       sodipodi:type="arc"
       sodipodi:cx="107.04014"
       sodipodi:cy="168.67998"
       sodipodi:rx="18.788034"
       sodipodi:ry="7.2313571"
       sodipodi:start="4.4841892"
       sodipodi:end="4.4800527"
       sodipodi:open="true"
       sodipodi:arc-type="arc"
       d="m 102.78983,161.63609 a 18.788034,7.2313571 0 0 1 22.54686,5.4007 18.788034,7.2313571 0 0 1 -14.0084,8.68367 18.788034,7.2313571 0 0 1 -22.575837,-5.38273 18.788034,7.2313571 0 0 1 13.961707,-8.69481"
       transform="matrix(0.99999797,0.00201699,-0.00142314,0.99999899,0,0)" />
    <path
       style="opacity:0.99;fill:none;stroke:#000000;stroke-width:0.499999;stroke-linecap:round;stroke-linejoin:round;stroke-dasharray:none;paint-order:stroke fill markers"
       d="m 70.501077,120.09747 c 1.335813,7.57829 4.21594,18.4058 -1.736815,23.79659 -3.597283,2.33875 -7.142472,4.96035 -10.569093,8.22568 -0.942803,0.92208 -2.049439,1.23079 -1.6793,4.30801 l 0.550021,8.21402"
       id="path8380"
       sodipodi:nodetypes="ccccc" />
    <path
       style="opacity:0.99;fill:none;stroke:#000000;stroke-width:0.499999;stroke-linecap:round;stroke-linejoin:round;stroke-dasharray:none;paint-order:stroke fill markers"
       d="m 82.544619,120.81264 c -0.877371,9.16829 2.830439,21.96995 -1.040783,29.68523 -3.217148,5.52111 -3.915365,5.89849 -12.494533,9.36003 -3.148364,4.43186 -6.365229,7.44299 -9.913006,9.70634 -2.626666,1.10871 -4.293176,-2.07753 -3.055977,-3.76006 3.063537,-3.5703 6.259515,-6.78749 10.532356,-9.90586"
       id="path8745"
       sodipodi:nodetypes="cccccc" />
    <path
       style="opacity:0.99;fill:none;stroke:#000000;stroke-width:0.499999;stroke-linecap:round;stroke-linejoin:round;stroke-dasharray:none;paint-order:stroke fill markers"
       d="m 57.733431,169.67572 2.275356,-2.24614 c 0.428204,-0.4381 -1.436624,-2.62905 -2.178201,-1.94154 l -2.067843,2.01411"
       id="path8749"
       sodipodi:nodetypes="cccc" />
    <path
       style="opacity:0.99;fill:none;stroke:#000000;stroke-width:0.499999;stroke-linecap:round;stroke-linejoin:round;stroke-dasharray:none;paint-order:stroke fill markers"
       d="m 60.680017,168.8229 c 1.618509,1.0187 4.569791,2.87267 8.433999,2.95783"
       id="path11889"
       sodipodi:nodetypes="cc" />
    <path
       style="opacity:0.99;fill:none;stroke:#000000;stroke-width:0.499999;stroke-linecap:round;stroke-linejoin:round;stroke-dasharray:none;paint-order:stroke fill markers"
       d="m 64.404855,165.5446 c 1.365901,0.67008 1.994067,1.39381 4.724819,1.98773"
       id="path11891"
       sodipodi:nodetypes="cc" />
    <path
       style="opacity:0.99;fill:none;stroke:#000000;stroke-width:0.499999;stroke-linecap:round;stroke-linejoin:round;stroke-dasharray:none;paint-order:stroke fill markers"
       d="m 66.794614,162.83084 c 1.104699,0.67982 2.033816,1.20317 3.347223,1.46558"
       id="path11893"
       sodipodi:nodetypes="cc" />
    <path
       style="opacity:0.99;fill:none;stroke:#000000;stroke-width:0.499999;stroke-linecap:round;stroke-linejoin:round;stroke-dasharray:none;paint-order:stroke fill markers"
       d="m 69.033889,160.13413 3.147031,0.83361"
       id="path11895"
       sodipodi:nodetypes="cc" />
    <path
       style="opacity:0.99;fill:none;stroke:#000000;stroke-width:0.499999;stroke-linecap:round;stroke-linejoin:round;stroke-dasharray:none;paint-order:stroke fill markers"
       d="m 70.554179,120.09151 11.990636,0.72132"
       id="path11921"
       sodipodi:nodetypes="cc" />
    <path
       style="opacity:0.99;fill:none;stroke:#000000;stroke-width:0.499999;stroke-linecap:round;stroke-linejoin:round;stroke-dasharray:none;paint-order:stroke fill markers"
       d="m 130.13041,116.16716 c 0.13692,7.77729 -0.60989,19.13325 6.18332,22.93108 3.93146,1.39268 7.86585,3.0762 11.80693,5.42164 1.08882,0.66855 2.22061,0.69363 2.4433,3.80837 l 1.01934,8.2041"
       id="path11907"
       sodipodi:nodetypes="ccccc" />
    <path
       style="opacity:0.99;fill:none;stroke:#000000;stroke-width:0.499999;stroke-linecap:round;stroke-linejoin:round;stroke-dasharray:none;paint-order:stroke fill markers"
       d="m 118.58351,119.89563 c 2.58426,8.78251 1.40782,22.28501 6.6214,28.88844 4.16433,4.61318 4.91294,4.80831 13.88902,6.05174 3.8917,3.56084 7.58126,5.70937 11.45044,7.04044 2.75743,0.42872 3.77158,-3.11882 2.25344,-4.46014 -3.64655,-2.73614 -7.35479,-5.09225 -12.08892,-7.08075"
       id="path11909"
       sodipodi:nodetypes="cccccc" />
    <path
       style="opacity:0.99;fill:none;stroke:#000000;stroke-width:0.499999;stroke-linecap:round;stroke-linejoin:round;stroke-dasharray:none;paint-order:stroke fill markers"
       d="m 151.88741,161.64327 -2.63169,-1.6339 c -0.49817,-0.3226 0.89649,-2.94263 1.74579,-2.45384 l 2.38655,1.45819"
       id="path11911"
       sodipodi:nodetypes="cccc" />
    <path
       style="opacity:0.99;fill:none;stroke:#000000;stroke-width:0.499999;stroke-linecap:round;stroke-linejoin:round;stroke-dasharray:none;paint-order:stroke fill markers"
       d="m 148.86804,161.54623 c -1.37736,1.40702 -3.291,3.2167 -6.92058,4.88662"
       id="path11913"
       sodipodi:nodetypes="cc" />
    <path
       style="opacity:0.99;fill:none;stroke:#000000;stroke-width:0.499999;stroke-linecap:round;stroke-linejoin:round;stroke-dasharray:none;paint-order:stroke fill markers"
       d="m 144.63524,159.26299 c -1.19823,1.00121 -1.8073,1.73498 -4.34382,3.00436"
       id="path11915"
       sodipodi:nodetypes="cc" />
    <path
       style="opacity:0.99;fill:none;stroke:#000000;stroke-width:0.499999;stroke-linecap:round;stroke-linejoin:round;stroke-dasharray:none;paint-order:stroke fill markers"
       d="m 141.80417,157.19864 c -0.94303,0.94514 -1.94264,1.81839 -3.16702,2.40609"
       id="path11917"
       sodipodi:nodetypes="cc" />
    <path
       style="opacity:0.99;fill:none;stroke:#000000;stroke-width:0.499999;stroke-linecap:round;stroke-linejoin:round;stroke-dasharray:none;paint-order:stroke fill markers"
       d="m 139.04978,154.91985 -3.17239,2.15395"
       id="path11919"
       sodipodi:nodetypes="cc" />
    <path
       style="opacity:0.99;fill:none;stroke:#000000;stroke-width:0.499999;stroke-linecap:round;stroke-linejoin:round;stroke-dasharray:none;paint-order:stroke fill markers"
       d="m 118.65745,119.85986 11.47085,-3.69929"
       id="path11923"
       sodipodi:nodetypes="cc" />
  </g>
</svg>
