<?xml version="1.0" encoding="UTF-8" standalone="no"?>
<!-- Created with Inkscape (http://www.inkscape.org/) -->

<svg
   width="210mm"
   height="297mm"
   viewBox="0 0 210 297"
   version="1.1"
   id="svg1281"
   inkscape:version="1.2.1 (9c6d41e410, 2022-07-14)"
   sodipodi:docname="drawing5.svg"
   xmlns:inkscape="http://www.inkscape.org/namespaces/inkscape"
   xmlns:sodipodi="http://sodipodi.sourceforge.net/DTD/sodipodi-0.dtd"
   xmlns="http://www.w3.org/2000/svg"
   xmlns:svg="http://www.w3.org/2000/svg">
  <sodipodi:namedview
     id="namedview1283"
     pagecolor="#ffffff"
     bordercolor="#000000"
     borderopacity="0.25"
     inkscape:showpageshadow="2"
     inkscape:pageopacity="0.0"
     inkscape:pagecheckerboard="0"
     inkscape:deskcolor="#d1d1d1"
     inkscape:document-units="mm"
     showgrid="false"
     inkscape:zoom="0.96746633"
     inkscape:cx="333.34494"
     inkscape:cy="623.27751"
     inkscape:window-width="1366"
     inkscape:window-height="697"
     inkscape:window-x="-8"
     inkscape:window-y="-8"
     inkscape:window-maximized="1"
     inkscape:current-layer="layer1" />
  <defs
     id="defs1278" />
  <g
     inkscape:label="Layer 1"
     inkscape:groupmode="layer"
     id="layer1">
    <path
       style="opacity:0.99;fill:none;stroke:#000000;stroke-width:0.5;stroke-linecap:round;stroke-linejoin:round;stroke-dasharray:none;stroke-opacity:1"
       d="m 44.128598,180.22529 0.388849,22.0912 c 5.099452,26.1033 68.073943,27.55927 72.719783,-1.58498 l -0.23146,-19.1806"
       id="path10519"
       sodipodi:nodetypes="cccc"
       inkscape:export-filename="drawing-3.png"
       inkscape:export-xdpi="96"
       inkscape:export-ydpi="96" />
    <path
       style="opacity:0.99;fill:none;stroke:#000000;stroke-width:0.5;stroke-linecap:round;stroke-linejoin:round;stroke-dasharray:none;stroke-opacity:1"
       d="m 64.288446,176.36504 -0.0089,16.1819"
       id="path11992"
       sodipodi:nodetypes="cc" />
    <path
       style="opacity:0.99;fill:none;stroke:#000000;stroke-width:0.5;stroke-linecap:round;stroke-linejoin:round;stroke-dasharray:none;stroke-opacity:1"
       d="m 101.40859,177.9013 0.002,13.46231"
       id="path12019"
       sodipodi:nodetypes="cc" />
    <path
       style="opacity:0.99;fill:none;stroke:#000000;stroke-width:0.5;stroke-linecap:round;stroke-linejoin:round;stroke-dasharray:none"
       d="m 64.085769,161.22979 -20.463255,-9.99662 20.229379,-5.9595 15.742235,5.54807"
       id="path1037"
       sodipodi:nodetypes="cccc" />
    <path
       style="opacity:0.99;fill:none;stroke:#000000;stroke-width:0.5;stroke-linecap:round;stroke-linejoin:round;stroke-dasharray:none"
       d="m 68.32933,159.69976 -33.212897,12.28382 -1.837112,2.43648 13.929543,7.26294 2.884507,-2.69847 33.295879,-13.25638 26.98748,14.29047 2.69921,2.99829 17.04438,-6.35406 -1.58746,-3.13538 -26.86607,-12.55031 28.63666,-8.00055 3.11207,0.2037 -18.01644,-6.41044 -22.286594,5.42022"
       id="path1039"
       sodipodi:nodetypes="ccccccccccccccc" />
    <path
       style="opacity:0.99;fill:none;stroke:#000000;stroke-width:0.5;stroke-linecap:round;stroke-linejoin:round;stroke-dasharray:none"
       d="M 47.287211,181.65839 83.475928,169.92084 113.06438,183.0789"
       id="path2493"
       sodipodi:nodetypes="ccc" />
    <path
       style="opacity:0.99;fill:none;stroke:#000000;stroke-width:0.5;stroke-linecap:round;stroke-linejoin:round;stroke-dasharray:none"
       d="m 83.463753,165.9097 -0.28689,4.02818"
       id="path2495"
       sodipodi:nodetypes="cc" />
    <path
       style="opacity:0.99;fill:none;stroke:#000000;stroke-width:0.5;stroke-linecap:round;stroke-linejoin:round;stroke-dasharray:none"
       d="m 33.445414,174.34108 35.534481,-11.14204 9.623027,4.31266"
       id="path2593" />
    <path
       style="opacity:0.99;fill:none;stroke:#000000;stroke-width:0.5;stroke-linecap:round;stroke-linejoin:round;stroke-dasharray:none"
       d="m 88.585299,168.15198 13.038831,-4.09749 28.31545,12.41261"
       id="path2597" />
    <path
       style="opacity:0.99;fill:none;stroke:#000000;stroke-width:0.5;stroke-linecap:round;stroke-linejoin:round;stroke-dasharray:none"
       d="M 104.75077,162.33898 133.7,153.24619"
       id="path2601"
       sodipodi:nodetypes="cc" />
    <path
       style="opacity:0.99;fill:none;stroke:#000000;stroke-width:0.5;stroke-linecap:round;stroke-linejoin:round;stroke-dasharray:none"
       d="M 68.979895,163.19904 68.573662,159.55454 45.606864,150.803"
       id="path2603"
       sodipodi:nodetypes="ccc" />
    <path
       style="opacity:0.99;fill:none;stroke:#000000;stroke-width:0.5;stroke-linecap:round;stroke-linejoin:round;stroke-dasharray:none"
       d="m 61.110251,146.28454 16.473952,7.24623"
       id="path2605"
       sodipodi:nodetypes="cc" />
    <path
       style="opacity:0.99;fill:none;stroke:#000000;stroke-width:0.5;stroke-linecap:round;stroke-linejoin:round;stroke-dasharray:none"
       d="m 68.357118,157.45789 0.262806,2.21381"
       id="path2607"
       sodipodi:nodetypes="cc" />
    <path
       style="opacity:0.99;fill:none;stroke:#000000;stroke-width:0.5;stroke-linecap:round;stroke-linejoin:round;stroke-dasharray:none"
       d="m 83.460025,163.16869 -0.186217,2.64398"
       id="path2609"
       sodipodi:nodetypes="cc" />
    <path
       style="opacity:0.99;fill:none;stroke:#000000;stroke-width:0.5;stroke-linecap:round;stroke-linejoin:round;stroke-dasharray:none"
       d="m 101.28317,157.2951 0.37159,6.74305"
       id="path2611"
       sodipodi:nodetypes="cc" />
    <path
       style="opacity:0.99;fill:none;stroke:#000000;stroke-width:0.5;stroke-linecap:round;stroke-linejoin:round;stroke-dasharray:none;paint-order:stroke fill markers"
       d="m 93.322522,153.66385 7.974728,3.60119 -18.001115,5.84902 -14.978709,-5.78574 11.631116,-4.70255"
       id="path1776"
       sodipodi:nodetypes="ccccc" />
    <path
       style="opacity:0.99;fill:none;stroke:#000000;stroke-width:0.5;stroke-linecap:round;stroke-linejoin:round;stroke-dasharray:none"
       d="m 135.51906,109.57533 -1.28876,7.12521 c -2.68042,6.33475 -6.08614,7.11712 -10.30975,10.11999 -0.90077,0.83994 -1.8584,1.60535 -2.49838,4.88132 l -1.19307,5.54475 c -0.49787,2.03904 -0.11777,3.27806 2.96669,6.70574 l 3.10483,4.67914 c 0.60959,0.8314 3.66819,0.7163 3.17599,-3.46102 -0.49831,-2.38299 -1.31261,-4.59756 -2.59713,-6.56152 l 1.09113,-3.23605"
       id="path300"
       sodipodi:nodetypes="cccccccccc" />
    <path
       style="opacity:0.99;fill:none;stroke:#000000;stroke-width:0.5;stroke-linecap:round;stroke-linejoin:round;stroke-dasharray:none"
       d="m 126.43336,148.74905 c 0.49996,-0.32207 1.21359,-2.11545 0.83796,-2.89806 l -1.78567,-2.5847 c -0.73904,-0.064 -1.48642,0.4931 -1.80443,1.33782"
       id="path398"
       sodipodi:nodetypes="cccc" />
    <path
       style="opacity:0.99;fill:none;stroke:#000000;stroke-width:0.5;stroke-linecap:round;stroke-linejoin:round;stroke-dasharray:none"
       d="m 120.75319,143.76971 2.0932,4.63113 c 1.23648,2.76079 3.81488,3.32189 5.8389,1.08417 3.48561,-4.39205 3.28502,-9.18802 2.3075,-14.241 0.0684,-0.61366 -1.79752,-1.70559 -3.00801,0.0967"
       id="path400"
       sodipodi:nodetypes="ccccc" />
    <path
       style="opacity:0.99;fill:none;stroke:#000000;stroke-width:0.5;stroke-linecap:round;stroke-linejoin:round;stroke-dasharray:none"
       d="m 120.86672,133.95087 -30.237368,3.30325 -1.708089,-9.06566 c -1.222133,-2.81428 -11.812954,-2.67214 -12.234999,1.64156 l 3.820561,26.57862 c 1.112545,3.78908 13.69424,2.55518 12.812569,-1.69188 l -1.306718,-8.06837 30.752264,-3.17239"
       id="path462"
       sodipodi:nodetypes="cccccccc" />
    <path
       style="opacity:0.99;fill:none;stroke:#000000;stroke-width:0.5;stroke-linecap:round;stroke-linejoin:round;stroke-dasharray:none"
       d="m 153.58578,115.80831 c -2.59054,4.8063 -0.87314,10.42788 -1.3595,14.5623"
       id="path464"
       sodipodi:nodetypes="cc" />
    <path
       style="opacity:0.99;fill:none;stroke:#000000;stroke-width:0.5;stroke-linecap:round;stroke-linejoin:round;stroke-dasharray:none"
       d="m 129.66167,148.15458 c 3.05886,2.11743 5.56844,2.23626 6.88488,0.72523 1.29772,-5.75427 2.03723,-10.25741 -0.77682,-15.5089 -0.57424,-1.17265 -4.65164,-0.50626 -4.77971,1.70763"
       id="path466"
       sodipodi:nodetypes="cccc" />
    <path
       style="opacity:0.99;fill:none;stroke:#000000;stroke-width:0.5;stroke-linecap:round;stroke-linejoin:round;stroke-dasharray:none"
       d="m 136.78698,148.48556 c 2.32747,1.50883 5.09079,0.31456 5.41102,-0.97065 1.58119,-5.51137 0.9419,-9.42234 -1.3159,-14.46063 -1.46686,-1.45054 -4.18273,-0.51953 -4.92158,0.50401"
       id="path468"
       sodipodi:nodetypes="cccc" />
    <path
       style="opacity:0.99;fill:none;stroke:#000000;stroke-width:0.5;stroke-linecap:round;stroke-linejoin:round;stroke-dasharray:none"
       d="m 142.23121,147.69275 c 1.84662,1.36482 3.63641,0.75013 4.26615,-0.6754 1.36894,-3.7526 -0.0207,-7.70976 -0.16749,-10.77473 -0.36023,-1.71484 -3.52145,-3.05924 -4.33867,-0.60338"
       id="path470"
       sodipodi:nodetypes="cccc" />
    <path
       style="opacity:0.99;fill:none;stroke:#000000;stroke-width:0.5;stroke-linecap:round;stroke-linejoin:round;stroke-dasharray:none"
       d="m 147.01013,140.83956 11.44302,-1.00548 c 1.49241,-1.20298 0.17743,-9.37155 -1.83824,-9.88699 l -16.94032,2.40481"
       id="path472"
       sodipodi:nodetypes="cccc" />
    <path
       style="opacity:0.99;fill:none;stroke:#000000;stroke-width:0.5;stroke-linecap:round;stroke-linejoin:round;stroke-dasharray:none"
       d="m 147.18551,142.99235 1.48933,-2.26576"
       id="path474" />
    <path
       style="opacity:0.99;fill:none;stroke:#000000;stroke-width:0.5;stroke-linecap:round;stroke-linejoin:round;stroke-dasharray:none"
       d="m 135.57732,109.56262 18.01733,6.22194"
       id="path476"
       sodipodi:nodetypes="cc" />
    <path
       style="opacity:0.99;fill:none;stroke:#000000;stroke-width:0.5;stroke-linecap:round;stroke-linejoin:round;stroke-dasharray:none"
       d="m 132.37522,134.96059 0.489,1.69822 c 0.66012,0.24706 1.69457,0.22276 2.72435,-0.14566 l -0.70416,-1.97232 c -0.7528,-0.39812 -2.14286,-0.24482 -2.50919,0.41976 z"
       id="path478"
       sodipodi:nodetypes="ccccc" />
    <path
       style="opacity:0.99;fill:none;stroke:#000000;stroke-width:0.5;stroke-linecap:round;stroke-linejoin:round;stroke-dasharray:none"
       d="m 137.19109,134.12506 0.91998,1.96308 c 0.87286,0.26726 1.57213,-0.0189 2.62788,-0.17245 l -0.64521,-2.12434 c -1.08166,-0.455 -1.98032,-0.51821 -2.90265,0.33371 z"
       id="path480"
       sodipodi:nodetypes="ccccc" />
    <path
       style="opacity:0.99;fill:none;stroke:#000000;stroke-width:0.5;stroke-linecap:round;stroke-linejoin:round;stroke-dasharray:none"
       d="m 143.86023,138.2965 1.47038,-0.32171 -0.37482,-2.18525 c -0.21024,-0.43111 -1.70279,-0.50074 -1.93521,0.0908 z"
       id="path482"
       sodipodi:nodetypes="ccccc" />
    <path
       style="opacity:0.99;fill:none;stroke:#000000;stroke-width:0.5;stroke-linecap:round;stroke-linejoin:round;stroke-dasharray:none"
       d="m 128.61787,138.36822 c 0.32567,0.37548 1.53769,0.4331 1.82387,-0.0164 l -0.0703,-2.31274 c -0.59394,-0.35414 -1.38925,-0.15744 -1.78252,0.22936 z"
       id="path484"
       sodipodi:nodetypes="ccccc" />
    <path
       style="opacity:0.99;fill:#000000;fill-opacity:0.146789;stroke:#000000;stroke-width:0.5;stroke-linecap:round;stroke-linejoin:round;stroke-dasharray:none;stroke-opacity:0.114679;paint-order:stroke fill markers"
       d="m 81.025462,156.32346 c -1.878651,-9.10652 -3.210234,-18.59807 -4.054876,-26.55002 0.369855,-2.9926 8.769898,-4.85831 11.768657,-1.60463 l 4.233262,27.1521 c 0.761179,3.09875 -10.655519,4.91263 -11.947043,1.00255 z"
       id="path14283"
       sodipodi:nodetypes="ccccc" />
    <path
       style="opacity:0.99;fill:#792300;fill-opacity:0.72093;stroke:#772300;stroke-width:0.5;stroke-linecap:round;stroke-linejoin:round;stroke-dasharray:none;stroke-opacity:0.72093;paint-order:stroke fill markers"
       d="m 91.837218,146.53834 -1.370161,-9.06981 30.220483,-3.29315 c -1.82282,5.2777 -1.03796,5.99879 1.47321,9.13849 z"
       id="path14987"
       sodipodi:nodetypes="ccccc" />
    <path
       style="opacity:0.99;fill:#792300;fill-opacity:0.72093;stroke:#772300;stroke-width:0.5;stroke-linecap:round;stroke-linejoin:round;stroke-dasharray:none;stroke-opacity:0.72093;paint-order:stroke fill markers"
       d="m 147.10221,140.66075 11.2979,-0.97136 c 1.29176,-4.1501 -0.7969,-8.4302 -1.71214,-9.56758 l -15.79514,2.31851 0.99988,2.48558 c 0.0224,-1.18347 3.43525,-1.77219 4.54913,1.20999 z"
       id="path22785"
       sodipodi:nodetypes="ccccccc" />
    <path
       style="opacity:0.99;fill:none;stroke:#000000;stroke-width:0.5;stroke-linecap:round;stroke-linejoin:round;stroke-dasharray:none;paint-order:stroke fill markers"
       d="m 47.205341,181.56696 c 6.401415,16.02912 56.080319,18.77901 65.383559,0.88946"
       id="path2031"
       sodipodi:nodetypes="cc" />
    <path
       style="opacity:0.99;fill:none;fill-opacity:0.610092;stroke:#000000;stroke-width:0.5;stroke-linecap:round;stroke-linejoin:round;stroke-dasharray:none;paint-order:stroke fill markers"
       d="m 64.10548,176.2659 c 7.644856,2.48565 20.643891,3.87612 37.17388,1.89375"
       id="path13212"
       sodipodi:nodetypes="cc" />
    <path
       style="opacity:0.99;fill:none;fill-opacity:0.610092;stroke:#000000;stroke-width:0.499999;stroke-linecap:round;stroke-linejoin:round;stroke-dasharray:none;paint-order:stroke fill markers"
       d="m 44.864166,168.33732 c 0.469125,-5.71392 2.227647,-9.11547 7.058372,-13.00481"
       id="path15051"
       sodipodi:nodetypes="cc" />
    <path
       style="opacity:0.99;fill:none;fill-opacity:0.610092;stroke:#000000;stroke-width:0.499999;stroke-linecap:round;stroke-linejoin:round;stroke-dasharray:none;paint-order:stroke fill markers"
       d="m 111.80198,160.28859 c 1.68432,1.40461 3.18092,4.21539 3.33924,6.71366"
       id="path15053"
       sodipodi:nodetypes="cc" />
    <path
       style="opacity:0.99;fill:none;fill-opacity:0.610092;stroke:#000000;stroke-width:0.499999;stroke-linecap:round;stroke-linejoin:round;stroke-dasharray:none;paint-order:stroke fill markers"
       d="m 94.419199,153.90124 22.767261,-6.29005"
       id="path16507" />
    <path
       style="opacity:0.99;fill:none;fill-opacity:0.610092;stroke:#000000;stroke-width:0.499999;stroke-linecap:round;stroke-linejoin:round;stroke-dasharray:none;paint-order:stroke fill markers"
       d="m 70.293641,147.50062 c 3.896515,-0.7303 5.755325,-0.64551 8.50872,-0.91856"
       id="path18729"
       sodipodi:nodetypes="cc" />
    <path
       style="opacity:0.99;fill:none;fill-opacity:0.610092;stroke:#000000;stroke-width:0.499999;stroke-linecap:round;stroke-linejoin:round;stroke-dasharray:none;paint-order:stroke fill markers"
       d="m 92.391972,146.90259 c 2.733354,0.23072 8.523248,1.46541 10.684768,2.68647"
       id="path18731"
       sodipodi:nodetypes="cc" />
  </g>
</svg>
