<?xml version="1.0" encoding="UTF-8" standalone="no"?>
<!-- Created with Inkscape (http://www.inkscape.org/) -->

<svg
   width="210mm"
   height="297mm"
   viewBox="0 0 210 297"
   version="1.1"
   id="svg1281"
   inkscape:version="1.2.1 (9c6d41e410, 2022-07-14)"
   sodipodi:docname="drawing-3.svg"
   xmlns:inkscape="http://www.inkscape.org/namespaces/inkscape"
   xmlns:sodipodi="http://sodipodi.sourceforge.net/DTD/sodipodi-0.dtd"
   xmlns="http://www.w3.org/2000/svg"
   xmlns:svg="http://www.w3.org/2000/svg">
  <sodipodi:namedview
     id="namedview1283"
     pagecolor="#ffffff"
     bordercolor="#000000"
     borderopacity="0.25"
     inkscape:showpageshadow="2"
     inkscape:pageopacity="0.0"
     inkscape:pagecheckerboard="0"
     inkscape:deskcolor="#d1d1d1"
     inkscape:document-units="mm"
     showgrid="false"
     inkscape:zoom="0.96746633"
     inkscape:cx="381.92544"
     inkscape:cy="568.49524"
     inkscape:window-width="1366"
     inkscape:window-height="697"
     inkscape:window-x="-8"
     inkscape:window-y="-8"
     inkscape:window-maximized="1"
     inkscape:current-layer="layer1" />
  <defs
     id="defs1278" />
  <g
     inkscape:label="Layer 1"
     inkscape:groupmode="layer"
     id="layer1">
    <path
       style="opacity:0.99;fill:none;stroke:#000000;stroke-width:0.5;stroke-linecap:round;stroke-linejoin:round;stroke-dasharray:none;stroke-opacity:1"
       d="m 45.222521,177.38793 1.209291,25.47552 c 5.099452,26.1033 66.159578,27.01231 70.805418,-2.13194 l 0.86246,-26.2911"
       id="path10519"
       sodipodi:nodetypes="cccc" />
    <path
       style="opacity:0.99;fill:none;stroke:#000000;stroke-width:0.5;stroke-linecap:round;stroke-linejoin:round;stroke-dasharray:none;stroke-opacity:1"
       d="m 63.998376,179.45912 -0.0089,13.2998"
       id="path11992"
       sodipodi:nodetypes="cc" />
    <path
       style="opacity:0.99;fill:none;stroke:#000000;stroke-width:0.5;stroke-linecap:round;stroke-linejoin:round;stroke-dasharray:none;stroke-opacity:1"
       d="m 101.55363,179.44834 0.002,12.5921"
       id="path12019"
       sodipodi:nodetypes="cc" />
    <path
       style="opacity:0.99;fill:none;stroke:#000000;stroke-width:0.5;stroke-linecap:round;stroke-linejoin:round;stroke-dasharray:none"
       d="m 70.252041,159.24109 -14.44144,-10.08317 14.397752,-6.92185 9.85201,4.73824"
       id="path1037"
       sodipodi:nodetypes="cccc" />
    <path
       style="opacity:0.99;fill:none;stroke:#000000;stroke-width:0.5;stroke-linecap:round;stroke-linejoin:round;stroke-dasharray:none"
       d="m 73.590125,157.77199 -23.607474,14.07382 -1.284038,2.68311 10.054827,7.55524 2.030068,-2.99101 23.65479,-15.12998 19.483202,14.8752 1.96809,3.18858 12.1144,-7.27686 -1.17447,-3.36259 -19.064124,-13.05396 20.076144,-9.26388 2.22881,0.14977 -8.58525,-4.08273"
       id="path1039"
       sodipodi:nodetypes="cccccccccccccc" />
    <path
       style="opacity:0.99;fill:none;stroke:#000000;stroke-width:0.5;stroke-linecap:round;stroke-linejoin:round;stroke-dasharray:none"
       d="m 58.809181,182.0557 25.743068,-13.54958 21.329841,13.58829"
       id="path2493"
       sodipodi:nodetypes="ccc" />
    <path
       style="opacity:0.99;fill:none;stroke:#000000;stroke-width:0.5;stroke-linecap:round;stroke-linejoin:round;stroke-dasharray:none"
       d="m 84.493846,164.15827 -0.15533,4.37315"
       id="path2495"
       sodipodi:nodetypes="cc" />
    <path
       style="opacity:0.99;fill:none;stroke:#000000;stroke-width:0.5;stroke-linecap:round;stroke-linejoin:round;stroke-dasharray:none"
       d="m 48.816455,174.43951 25.282423,-12.88909 6.937499,4.45537"
       id="path2593" />
    <path
       style="opacity:0.99;fill:none;stroke:#000000;stroke-width:0.5;stroke-linecap:round;stroke-linejoin:round;stroke-dasharray:none"
       d="m 88.185449,166.47205 9.276887,-4.7393 20.409934,12.80927"
       id="path2597" />
    <path
       style="opacity:0.99;fill:none;stroke:#000000;stroke-width:0.5;stroke-linecap:round;stroke-linejoin:round;stroke-dasharray:none"
       d="m 100.15959,159.57667 20.1151,-10.2923"
       id="path2601"
       sodipodi:nodetypes="cc" />
    <path
       style="opacity:0.99;fill:none;stroke:#000000;stroke-width:0.5;stroke-linecap:round;stroke-linejoin:round;stroke-dasharray:none"
       d="m 74.098878,161.55042 -0.335762,-3.94143 -16.678427,-9.11546"
       id="path2603" />
    <path
       style="opacity:0.99;fill:none;stroke:#000000;stroke-width:0.5;stroke-linecap:round;stroke-linejoin:round;stroke-dasharray:none"
       d="m 68.259575,143.39443 11.874822,7.47907"
       id="path2605"
       sodipodi:nodetypes="cc" />
    <path
       style="opacity:0.99;fill:none;stroke:#000000;stroke-width:0.5;stroke-linecap:round;stroke-linejoin:round;stroke-dasharray:none"
       d="m 73.58223,155.34113 0.215432,2.39379"
       id="path2607"
       sodipodi:nodetypes="cc" />
    <path
       style="opacity:0.99;fill:none;stroke:#000000;stroke-width:0.5;stroke-linecap:round;stroke-linejoin:round;stroke-dasharray:none"
       d="m 84.457218,161.18705 -0.100457,2.87037"
       id="path2609"
       sodipodi:nodetypes="cc" />
    <path
       style="opacity:0.99;fill:none;stroke:#000000;stroke-width:0.5;stroke-linecap:round;stroke-linejoin:round;stroke-dasharray:none"
       d="m 97.134674,154.41324 0.349371,7.30111"
       id="path2611"
       sodipodi:nodetypes="cc" />
    <path
       style="opacity:0.99;fill:none;stroke:#000000;stroke-width:0.5;stroke-linecap:round;stroke-linejoin:round;stroke-dasharray:none;paint-order:stroke fill markers"
       d="m 93.221462,152.08315 3.922911,2.29719 -12.805073,6.75125 -10.787071,-5.93001 6.609558,-4.42066"
       id="path1776" />
    <path
       style="opacity:0.99;fill:none;stroke:#000000;stroke-width:0.5;stroke-linecap:round;stroke-linejoin:round;stroke-dasharray:none"
       d="m 140.29941,112.97743 -2.0944,6.93131 c -3.38664,5.98702 -6.85945,6.37515 -11.39849,8.8758 -0.99083,0.73152 -2.02964,1.38251 -3.03972,4.5639 l -1.81877,5.37213 c -0.72758,1.96881 -0.49153,3.24314 2.18111,7.00078 l 2.54989,5.00324 c 0.51061,0.8956 3.56233,1.13071 3.55063,-3.07549 -0.22278,-2.42432 -0.77873,-4.71742 -1.83045,-6.81528 l 1.45372,-3.09019"
       id="path300"
       sodipodi:nodetypes="cccccccccc" />
    <path
       style="opacity:0.99;fill:none;stroke:#000000;stroke-width:0.5;stroke-linecap:round;stroke-linejoin:round;stroke-dasharray:none"
       d="m 126.79747,150.85656 c 0.53348,-0.26284 1.44734,-1.96294 1.16359,-2.78334 l -1.47867,-2.7718 c -0.72688,-0.14806 -1.53302,0.32004 -1.94546,1.1229"
       id="path398"
       sodipodi:nodetypes="cccc" />
    <path
       style="opacity:0.99;fill:none;stroke:#000000;stroke-width:0.5;stroke-linecap:round;stroke-linejoin:round;stroke-dasharray:none"
       d="m 121.7234,145.26085 1.55037,4.83995 c 0.91296,2.88399 3.41037,3.736 5.6768,1.74419 3.96459,-3.96505 4.31327,-8.75253 3.91947,-13.88411 0.13804,-0.60183 -1.59088,-1.89979 -2.99936,-0.2476"
       id="path400"
       sodipodi:nodetypes="ccccc" />
    <path
       style="opacity:0.99;fill:none;stroke:#000000;stroke-width:0.5;stroke-linecap:round;stroke-linejoin:round;stroke-dasharray:none"
       d="m 122.95803,135.51927 -30.41677,-0.1731 -0.661121,-9.20145 c -0.892589,-2.93548 -11.430298,-4.00431 -12.342434,0.23292 l 0.758844,26.84109 c 0.672344,3.89138 13.312627,4.10306 12.921972,-0.21693 l -0.376323,-8.16483 30.913342,0.36194"
       id="path462"
       sodipodi:nodetypes="cccccccc" />
    <path
       style="opacity:0.99;fill:none;stroke:#000000;stroke-width:0.5;stroke-linecap:round;stroke-linejoin:round;stroke-dasharray:none"
       d="m 157.53568,121.23378 c -3.12271,4.47885 -2.05884,10.25984 -3.01439,14.31162"
       id="path464"
       sodipodi:nodetypes="cc" />
    <path
       style="opacity:0.99;fill:none;stroke:#000000;stroke-width:0.5;stroke-linecap:round;stroke-linejoin:round;stroke-dasharray:none"
       d="m 130.07256,150.63483 c 2.79691,2.45305 5.27648,2.85783 6.75694,1.5071 1.94666,-5.56832 3.19583,-9.95748 1.00021,-15.4961 -0.4365,-1.23058 -4.56334,-1.03441 -4.94352,1.15035"
       id="path466"
       sodipodi:nodetypes="cccc" />
    <path
       style="opacity:0.99;fill:none;stroke:#000000;stroke-width:0.5;stroke-linecap:round;stroke-linejoin:round;stroke-dasharray:none"
       d="m 137.1134,151.77773 c 2.13984,1.76487 5.02151,0.89414 5.48648,-0.34607 2.20053,-5.29462 2.01227,-9.25302 0.3449,-14.51628 -1.29153,-1.60863 -4.09599,-0.99402 -4.94694,-0.0616"
       id="path468"
       sodipodi:nodetypes="cccc" />
    <path
       style="opacity:0.99;fill:none;stroke:#000000;stroke-width:0.5;stroke-linecap:round;stroke-linejoin:round;stroke-dasharray:none"
       d="m 142.61256,151.61213 c 1.67859,1.56687 3.52689,1.16069 4.31538,-0.18355 1.78872,-3.57162 0.86032,-7.66164 1.06465,-10.72331 -0.16194,-1.74477 -3.14886,-3.44155 -4.24132,-1.09514"
       id="path470"
       sodipodi:nodetypes="cccc" />
    <path
       style="opacity:0.99;fill:none;stroke:#000000;stroke-width:0.5;stroke-linecap:round;stroke-linejoin:round;stroke-dasharray:none"
       d="m 148.14318,145.34983 11.48297,0.30851 c 1.62008,-1.02459 1.247,-9.28991 -0.69658,-10.03227 l -17.10415,0.45357"
       id="path472"
       sodipodi:nodetypes="cccc" />
    <path
       style="opacity:0.99;fill:none;stroke:#000000;stroke-width:0.5;stroke-linecap:round;stroke-linejoin:round;stroke-dasharray:none"
       d="m 148.07145,147.50856 1.73845,-2.08076"
       id="path474" />
    <path
       style="opacity:0.99;fill:none;stroke:#000000;stroke-width:0.5;stroke-linecap:round;stroke-linejoin:round;stroke-dasharray:none"
       d="m 140.35874,112.97146 17.18846,8.23974"
       id="path476"
       sodipodi:nodetypes="cc" />
    <path
       style="opacity:0.99;fill:none;stroke:#000000;stroke-width:0.5;stroke-linecap:round;stroke-linejoin:round;stroke-dasharray:none"
       d="m 134.2758,137.83727 0.29177,1.74297 c 0.62757,0.32086 1.65802,0.41491 2.72315,0.16656 l -0.4742,-2.03986 c -0.70239,-0.48152 -2.10086,-0.48805 -2.54072,0.13033 z"
       id="path478"
       sodipodi:nodetypes="ccccc" />
    <path
       style="opacity:0.99;fill:none;stroke:#000000;stroke-width:0.5;stroke-linecap:round;stroke-linejoin:round;stroke-dasharray:none"
       d="m 139.1556,137.55744 0.68966,2.05533 c 0.83661,0.36524 1.564,0.16085 2.63038,0.12893 l -0.39827,-2.18415 c -1.0226,-0.5756 -1.90815,-0.74107 -2.92177,-1.1e-4 z"
       id="path480"
       sodipodi:nodetypes="ccccc" />
    <path
       style="opacity:0.99;fill:none;stroke:#000000;stroke-width:0.5;stroke-linecap:round;stroke-linejoin:round;stroke-dasharray:none"
       d="m 145.30446,142.46353 1.49751,-0.1516 -0.12269,-2.21377 c -0.15961,-0.45231 -1.63443,-0.69201 -1.93291,-0.13095 z"
       id="path482"
       sodipodi:nodetypes="ccccc" />
    <path
       style="opacity:0.99;fill:none;stroke:#000000;stroke-width:0.5;stroke-linecap:round;stroke-linejoin:round;stroke-dasharray:none"
       d="m 130.15372,140.79329 c 0.28064,0.41023 1.47814,0.60595 1.81381,0.19206 l 0.19444,-2.30562 c -0.54959,-0.41968 -1.36216,-0.31513 -1.79705,0.0242 z"
       id="path484"
       sodipodi:nodetypes="ccccc" />
    <path
       style="opacity:0.99;fill:#000000;fill-opacity:0.146789;stroke:#000000;stroke-width:0.5;stroke-linecap:round;stroke-linejoin:round;stroke-dasharray:none;stroke-opacity:0.114679;paint-order:stroke fill markers"
       d="m 80.821522,153.19336 c -0.825897,-9.26153 -1.064319,-18.84306 -0.994893,-26.83944 0.709349,-2.93075 9.267549,-3.82451 11.874927,-0.24952 l 1.10332,27.45797 c 0.402153,3.16542 -11.147027,3.66303 -11.983354,-0.36901 z"
       id="path14283"
       sodipodi:nodetypes="ccccc" />
    <path
       style="opacity:0.99;fill:#792300;fill-opacity:0.72093;stroke:#772300;stroke-width:0.5;stroke-linecap:round;stroke-linejoin:round;stroke-dasharray:none;stroke-opacity:0.72093;paint-order:stroke fill markers"
       d="m 92.680462,144.7076 -0.324931,-9.16697 30.398839,0.18121 c -2.41388,5.03488 -1.71655,5.84092 0.41946,9.24697 z"
       id="path14987"
       sodipodi:nodetypes="ccccc" />
    <path
       style="opacity:0.99;fill:#792300;fill-opacity:0.72093;stroke:#772300;stroke-width:0.5;stroke-linecap:round;stroke-linejoin:round;stroke-dasharray:none;stroke-opacity:0.72093;paint-order:stroke fill markers"
       d="m 148.25509,145.18271 11.3349,0.32582 c 1.75746,-3.97533 0.1715,-8.46604 -0.6078,-9.70054 l -15.95661,0.49868 0.70935,2.58354 c 0.15749,-1.17316 3.61523,-1.3681 4.38109,1.72182 z"
       id="path22785"
       sodipodi:nodetypes="ccccccc" />
    <path
       style="opacity:0.99;fill:none;stroke:#000000;stroke-width:0.5;stroke-linecap:round;stroke-linejoin:round;paint-order:stroke fill markers;stroke-dasharray:none"
       d="m 45.154236,177.2328 c 10.540646,23.63372 62.883614,27.41444 72.904274,-2.70732"
       id="path2031"
       sodipodi:nodetypes="cc" />
    <path
       style="opacity:0.99;fill:none;stroke:#000000;stroke-width:0.5;stroke-linecap:round;stroke-linejoin:round;stroke-dasharray:none;paint-order:stroke fill markers"
       d="m 45.17841,177.28114 c -1.347935,-7.04652 3.515903,-17.07549 17.742618,-22.81884"
       id="path2033"
       sodipodi:nodetypes="cc" />
    <path
       style="opacity:0.99;fill:none;stroke:#000000;stroke-width:0.5;stroke-linecap:round;stroke-linejoin:round;stroke-dasharray:none;paint-order:stroke fill markers"
       d="m 106.91654,156.35753 c 5.22426,2.95094 11.41883,10.39784 11.18706,18.1473"
       id="path2140"
       sodipodi:nodetypes="cc" />
  </g>
</svg>
